<svg version="1.1" id="Layer_1" xmlns="http://www.w3.org/2000/svg" xmlns:xlink="http://www.w3.org/1999/xlink" x="0px" y="0px"
	 width="100%" viewBox="0 0 217 232" enable-background="new 0 0 217 232" xml:space="preserve">
<path fill="#FCFEFC" opacity="1.000000" stroke="none" 
	d="
M127.000000,233.000000 
	C84.666672,233.000000 42.833340,233.000000 1.000006,233.000000 
	C1.000004,155.666672 1.000004,78.333351 1.000002,1.000016 
	C73.333321,1.000011 145.666641,1.000011 217.999969,1.000005 
	C217.999985,78.333321 217.999985,155.666641 218.000000,232.999969 
	C187.833328,233.000000 157.666672,233.000000 127.000000,233.000000 
M44.218193,53.815685 
	C44.022217,54.091965 43.826244,54.368248 43.891132,54.776131 
	C43.891132,54.776131 43.663162,54.593376 43.116955,54.762192 
	C42.744892,55.177158 42.372829,55.592129 42.000458,56.000458 
	C42.000458,56.000458 42.007290,56.002071 41.493046,56.115520 
	C41.314117,56.404926 41.135189,56.694332 41.001053,57.001366 
	C41.001053,57.001366 40.983730,56.956459 40.477699,57.114326 
	C40.295811,57.406467 40.113922,57.698608 39.486050,58.151348 
	C39.204182,58.337605 39.038788,58.597878 38.486923,59.103859 
	C38.317913,59.401569 38.148903,59.699284 38.001904,60.001480 
	C38.001904,60.001480 37.993431,59.980659 37.464512,60.190220 
	C37.159180,60.656406 36.853848,61.122589 36.530083,61.769547 
	C36.530083,61.769547 36.604576,61.603806 36.080688,61.833923 
	C35.880581,62.153622 35.680473,62.473320 34.948910,63.156242 
	C29.876896,71.245689 24.804880,79.335144 19.238697,87.808510 
	C19.163839,88.209030 19.088982,88.609550 18.999924,89.000305 
	C18.999924,89.000305 19.013712,89.013062 18.553123,89.538200 
	C17.698915,92.025299 16.844707,94.512390 16.002193,96.997322 
	C16.002193,96.997322 15.994163,96.985329 15.548848,97.564690 
	C11.170407,110.379028 10.008914,123.543098 11.200811,137.675613 
	C11.353014,138.114471 11.505218,138.553314 11.520189,139.768097 
	C12.621080,144.675598 13.721972,149.583099 14.735783,154.770706 
	C14.735783,154.770706 14.924106,154.995590 14.868142,155.743484 
	C15.547546,157.533005 16.226950,159.322525 16.961014,161.039337 
	C16.961014,161.039337 16.870338,161.046555 16.860832,161.714233 
	C17.224987,162.495331 17.589144,163.276413 18.005476,164.021072 
	C18.005476,164.021072 17.942347,164.027786 17.908257,164.668182 
	C18.292957,165.413803 18.677658,166.159409 19.005117,166.947418 
	C19.005117,166.947418 19.073208,166.968307 19.028570,167.556198 
	C19.356632,168.034851 19.684694,168.513504 20.000076,168.999390 
	C20.000076,168.999390 20.011408,168.988495 20.013460,169.614212 
	C20.282459,169.917633 20.551456,170.221039 20.784678,170.795639 
	C20.784678,170.795639 20.985058,170.981812 20.986774,171.580551 
	C21.319862,172.063843 21.652950,172.547150 22.006058,173.008377 
	C22.006058,173.008377 21.976990,173.007202 21.992725,173.630753 
	C22.646969,174.614227 23.301212,175.597702 24.414072,177.145004 
	C33.123730,192.201920 44.496384,204.623001 60.298191,213.503479 
	C60.852695,213.701736 61.407200,213.899979 61.974716,214.014252 
	C61.974716,214.014252 61.909737,214.069031 62.250469,214.572037 
	C62.813538,214.768585 63.376606,214.965134 63.940235,215.072647 
	C63.940235,215.072647 63.860062,215.111374 64.217339,215.683914 
	C65.459450,216.177414 66.701561,216.670914 67.938782,217.076111 
	C67.938782,217.076111 67.860115,217.116516 68.191010,217.645096 
	C68.781837,217.800201 69.372658,217.955322 69.967911,218.026367 
	C69.967911,218.026367 69.899551,218.075485 70.260452,218.576691 
	C70.845139,218.720474 71.429817,218.864258 72.232971,219.209839 
	C72.232971,219.209839 72.528816,219.179398 73.001564,219.762558 
	C79.657074,221.527252 86.312584,223.291946 93.681648,225.387009 
	C99.133904,225.807831 104.586166,226.228653 110.674202,226.800903 
	C111.103256,226.746078 111.532318,226.691254 112.822304,226.841873 
	C127.256310,225.932556 141.215195,223.221130 153.997009,216.001785 
	C153.997009,216.001785 153.993622,215.986801 154.694244,215.947845 
	C156.836884,214.647034 158.979523,213.346207 161.782379,211.882858 
	C177.080933,201.220795 190.452194,188.825089 198.693985,171.072601 
	C198.777878,170.710129 198.861786,170.347672 199.160873,169.729050 
	C199.160873,169.729050 199.148102,169.394760 199.721329,168.976776 
	C200.164017,167.653061 200.606720,166.329330 200.994202,165.011459 
	C200.994202,165.011459 201.028351,165.055252 201.567505,164.583054 
	C204.376190,157.675613 206.184448,150.558044 206.996552,143.231232 
	C206.566391,143.114975 206.136215,142.998734 205.706039,142.882492 
	C204.010773,147.522064 202.315491,152.161621 200.111450,157.290207 
	C195.075912,164.748901 191.056915,173.247528 184.753540,179.409210 
	C176.435028,187.540710 166.324631,193.839127 156.323364,200.808960 
	C155.545380,201.206390 154.767380,201.603836 153.999512,202.002625 
	C153.999512,202.002625 154.005737,201.995926 153.392059,201.973755 
	C152.891815,202.288361 152.391586,202.602982 151.960892,202.963730 
	C151.960892,202.963730 151.964752,202.880341 151.307953,202.885406 
	C150.535797,203.255585 149.763641,203.625763 148.999390,204.000610 
	C148.999390,204.000610 148.998489,203.993988 148.268784,203.962830 
	C146.508408,204.635056 144.748032,205.307297 142.998779,206.000000 
	C142.998779,206.000000 142.981918,205.981476 142.158340,205.920364 
	C133.471512,206.931946 124.790070,208.672318 116.096222,208.736664 
	C108.412025,208.793564 100.714005,206.982941 93.003593,205.985214 
	C93.003593,205.985214 92.981750,205.985657 92.431908,205.541916 
	C89.630730,204.659912 86.829559,203.777908 83.554573,202.381317 
	C67.907532,195.955688 54.501637,186.340012 45.086563,172.289764 
	C39.405647,163.812073 35.510361,154.137817 30.794758,144.228745 
	C30.213102,141.979980 29.587563,139.741516 29.056900,137.480789 
	C25.559013,122.579117 26.740252,107.779854 29.998198,93.023094 
	C29.998198,93.023094 30.057453,93.069046 30.530554,92.529205 
	C31.398714,89.702293 32.266876,86.875374 33.044029,84.045029 
	C33.044029,84.045029 33.098946,84.117683 33.600365,83.757118 
	C33.740459,83.171997 33.880558,82.586876 33.994106,82.007057 
	C33.994106,82.007057 34.012436,82.027550 34.440140,81.614738 
	C34.614796,81.070541 34.789452,80.526337 35.004700,79.981140 
	C35.004700,79.981140 34.968525,79.959732 35.404938,79.454124 
	C36.268883,77.633057 37.132828,75.811981 37.999191,73.999001 
	C37.999191,73.999001 37.992466,74.001045 38.450687,73.627640 
	C38.654278,73.089684 38.857868,72.551727 38.998787,72.011520 
	C38.998787,72.011520 39.036652,72.061516 39.568729,71.724449 
	C40.042068,70.808701 40.515408,69.892944 41.201672,68.800514 
	C41.201672,68.800514 41.189671,68.524086 41.716782,68.198105 
	C41.866001,67.820473 42.015224,67.442833 42.073753,67.065826 
	C42.073753,67.065826 42.117203,67.145432 42.669086,66.845070 
	C43.183136,65.950066 43.697182,65.055069 44.110733,64.097122 
	C44.110733,64.097122 44.144402,64.210831 44.649345,63.999290 
	C44.786583,63.672367 44.923820,63.345444 44.999207,63.008595 
	C44.999207,63.008595 45.034283,63.060501 45.559643,62.791573 
	C45.831280,62.278904 46.102917,61.766235 46.238972,61.205132 
	C46.238972,61.205132 46.285488,61.341381 46.843056,61.093159 
	C47.290180,60.426857 47.737309,59.760551 48.085003,59.075764 
	C48.085003,59.075764 48.100868,59.175652 48.623886,58.996727 
	C48.780903,58.677181 48.937923,58.357632 49.019096,58.022961 
	C49.019096,58.022961 49.045475,58.095661 49.544598,57.906738 
	C49.716694,57.604828 49.888790,57.302917 50.518192,56.838318 
	C50.809139,56.643345 50.965981,56.371109 51.467415,55.838123 
	C51.629414,55.550034 51.791416,55.261944 52.000225,54.999439 
	C52.000225,54.999439 51.967617,54.957169 52.512897,54.747383 
	C53.001404,54.158199 53.489914,53.569016 54.000000,53.000000 
	C54.000000,53.000000 53.980057,52.978397 54.545979,52.799339 
	C55.046688,52.199726 55.547401,51.600117 56.503380,50.881496 
	C56.794575,50.712029 56.969379,50.461391 57.559731,49.975334 
	C57.761436,49.679497 57.963142,49.383659 58.071373,49.079468 
	C58.071373,49.079468 58.094925,49.170315 58.547966,49.109367 
	C58.547966,49.109367 58.993290,49.006172 59.457218,48.859383 
	C59.751179,48.684425 59.945511,48.432590 60.285595,47.664719 
	C60.338394,47.505566 60.391197,47.346409 60.831642,46.886341 
	C61.181118,46.571438 61.530594,46.256531 62.631947,45.971291 
	C67.783005,43.081509 72.946472,40.213490 78.077728,37.288967 
	C79.661949,36.386055 81.271446,34.693375 82.009407,38.044697 
	C82.009407,38.044697 81.962021,38.024128 81.496712,38.078224 
	C81.186806,38.230217 81.019814,38.478390 80.914696,39.541367 
	C78.295601,43.953217 75.676514,48.365067 72.915260,53.016403 
	C88.724159,66.786240 104.719208,79.827888 123.151962,90.618584 
	C124.102318,91.080795 125.052666,91.543015 125.999557,91.998322 
	C125.999557,91.998322 125.990517,92.000221 126.372398,92.450447 
	C126.909470,92.654442 127.446541,92.858437 127.986359,92.998650 
	C127.986359,92.998650 127.936752,93.038826 128.275620,93.535156 
	C128.825363,93.748909 129.375107,93.962662 129.935364,94.082664 
	C129.935364,94.082664 129.850403,94.123695 130.205566,94.689476 
	C131.811508,95.445236 133.417465,96.200989 135.023331,97.005745 
	C135.023331,97.005745 135.048370,96.962616 135.465759,97.363724 
	C135.982773,97.563492 136.499786,97.763260 137.018906,98.006325 
	C137.018906,98.006325 137.043808,97.970215 137.542648,98.435158 
	C139.687500,99.319702 141.832367,100.204239 143.975433,101.012901 
	C143.975433,101.012901 143.915009,101.058830 144.277115,101.553719 
	C144.852768,101.700912 145.428436,101.848106 146.000000,102.000000 
	C146.000000,102.000000 146.003433,101.995033 146.501770,102.432198 
	C147.341095,102.641914 148.180405,102.851631 149.190903,103.254257 
	C149.190903,103.254257 149.442337,103.196884 149.911362,103.741180 
	C150.603760,103.872284 151.296173,104.003380 152.156784,104.322517 
	C152.156784,104.322517 152.402817,104.266640 152.898468,104.785019 
	C153.596741,104.882721 154.295013,104.980423 155.211639,105.269051 
	C155.211639,105.269051 155.491440,105.192688 156.026840,105.779678 
	C162.585175,107.583412 169.165985,109.120461 176.578140,108.035118 
	C175.522293,105.568512 174.758133,103.783340 173.999390,102.000710 
	C173.999390,102.000710 173.996597,102.007729 174.030365,101.310104 
	C173.353561,99.879997 172.676758,98.449890 172.006271,97.003746 
	C172.006271,97.003746 171.992096,96.994881 171.996628,96.329422 
	C171.349655,95.197044 170.702667,94.064667 169.996414,92.980171 
	C169.996414,92.980171 170.070648,92.963242 170.062698,92.357117 
	C169.725189,91.878845 169.387695,91.400574 169.006042,90.980080 
	C169.006042,90.980080 169.078705,90.977028 169.046753,90.376244 
	C168.706100,89.902931 168.365448,89.429626 167.993546,88.990257 
	C167.993546,88.990257 168.039612,88.988403 168.016327,88.402481 
	C167.670486,87.941208 167.324646,87.479935 167.000000,87.000305 
	C167.000000,87.000305 166.978653,87.016991 166.946396,86.383087 
	C166.322769,85.553886 165.699158,84.724693 165.028229,83.965950 
	C165.028229,83.965950 165.112854,83.959663 165.052139,83.376999 
	C164.701889,82.920258 164.351654,82.463516 164.001221,82.000061 
	C164.001221,82.000061 163.997437,81.996353 163.959839,81.436897 
	C163.675232,81.212357 163.390625,80.987816 162.928268,80.114632 
	C154.967712,67.492012 143.935715,57.659420 131.777100,47.211395 
	C134.700516,47.211395 136.304092,46.775612 137.511856,47.282646 
	C144.930176,50.396961 152.735519,52.951214 159.523148,57.134277 
	C176.077087,67.336098 186.209213,82.664848 191.847580,101.930618 
	C192.572327,110.304115 193.297073,118.677612 193.740158,127.773422 
	C191.716736,136.893997 189.693298,146.014572 187.669861,155.135147 
	C188.220901,155.313797 188.771927,155.492447 189.322968,155.671097 
	C192.218002,147.760284 195.113052,139.849472 198.360031,131.268585 
	C198.824463,122.841835 199.288895,114.415077 199.798370,105.354820 
	C199.578110,104.551521 199.357864,103.748222 199.221756,102.164917 
	C198.828018,100.448479 198.434296,98.732048 198.083771,96.220848 
	C192.336700,73.862862 179.933365,56.792126 158.970200,46.272556 
	C149.673187,41.607212 140.423508,36.897106 129.750809,36.892727 
	C125.188820,36.890854 122.669762,35.016422 121.296028,30.911917 
	C118.486313,22.516880 115.608261,14.144717 112.520088,5.062412 
	C104.583984,13.417507 96.729408,21.686771 88.446533,30.123785 
	C88.177994,30.305546 88.010803,30.555187 87.950218,30.957006 
	C87.950218,30.957006 87.872383,30.924215 87.083389,30.912281 
	C85.103485,31.801783 83.178413,32.851837 81.133247,33.550209 
	C75.357468,35.522476 69.475571,37.197697 63.760250,39.325142 
	C61.963459,39.993973 60.561878,41.724533 59.002613,42.996799 
	C59.002613,42.996799 58.972286,42.980171 58.360821,43.017021 
	C57.919262,43.378910 57.477703,43.740803 56.798523,44.627869 
	C56.165962,44.998398 55.533401,45.368931 54.302429,45.938473 
	C54.023594,46.241901 53.744759,46.545334 53.199570,46.836662 
	C53.199570,46.836662 53.040760,47.050831 52.501621,47.094189 
	C52.288162,47.368870 52.074703,47.643547 51.955883,47.953568 
	C51.955883,47.953568 51.908817,47.864174 51.297562,47.989769 
	C50.516548,48.651001 49.735535,49.312233 48.993496,50.004730 
	C48.993496,50.004730 48.984928,49.955532 48.444954,50.041088 
	C48.246052,50.331364 48.047146,50.621643 47.948757,50.942482 
	C47.948757,50.942482 47.893372,50.853210 47.316990,51.019600 
	C46.788029,51.596470 46.259068,52.173340 45.864471,52.898808 
	C45.864471,52.898808 45.784950,52.714931 45.267025,52.865421 
	C45.069466,53.152454 44.871906,53.439487 44.850098,53.824360 
	C44.850098,53.824360 44.721333,53.669823 44.218193,53.815685 
M109.829063,92.373520 
	C109.335060,92.113251 108.841049,91.852974 107.927483,91.070091 
	C104.325043,88.669113 100.722603,86.268135 96.791428,83.288818 
	C94.240517,81.475342 91.689606,79.661865 88.817596,77.282379 
	C87.251297,76.146843 85.684990,75.011307 83.791695,73.305840 
	C81.877823,71.854927 79.963943,70.404007 77.837090,68.491341 
	C77.541023,68.348167 77.244957,68.204994 76.692413,67.478485 
	C75.512169,66.603806 74.331924,65.729126 72.965202,64.386299 
	C72.686096,64.211662 72.406998,64.037025 71.868668,63.290436 
	C70.770920,62.389305 69.673172,61.488171 68.165405,60.250454 
	C66.246895,64.007866 64.398300,67.273949 62.953495,70.709824 
	C62.597076,71.557411 63.554203,72.957352 64.300819,74.645355 
	C66.498718,75.803398 68.696609,76.961449 71.237923,78.662895 
	C72.372421,79.248497 73.506927,79.834099 75.079163,80.920158 
	C77.031906,81.967880 78.984642,83.015602 81.318321,84.620354 
	C84.534798,86.426361 87.751266,88.232361 91.355705,90.588631 
	C93.752213,91.901672 96.148720,93.214706 98.992226,95.019287 
	C102.050758,96.851723 105.008553,98.889587 108.198517,100.454041 
	C110.937103,101.797134 111.406136,103.309364 109.028450,105.992607 
	C107.558907,107.884796 106.089355,109.776985 104.183624,112.230812 
	C109.491791,114.523811 114.037514,116.487457 119.090416,118.914955 
	C124.591919,121.437630 130.093414,123.960297 136.115387,126.925728 
	C139.020020,128.392365 141.924667,129.859009 145.157822,131.491531 
	C143.146378,133.686600 141.520691,135.460709 139.422089,137.750916 
	C150.867950,142.298691 161.605728,146.671478 172.478638,150.677475 
	C173.321854,150.988144 176.074814,148.899658 176.305344,147.629547 
	C177.633102,140.314423 179.133881,132.924271 179.293762,125.531822 
	C179.473877,117.203392 178.882507,117.204201 170.693024,116.867859 
	C169.369598,116.813507 168.053925,116.574898 166.734192,116.425507 
	C153.301239,114.904907 141.235184,109.275352 128.676285,103.361176 
	C124.147148,100.874382 119.618011,98.387589 114.769188,95.363556 
	C113.850174,94.904335 112.931152,94.445114 111.713715,93.483932 
	C111.182632,93.275146 110.651558,93.066360 109.829063,92.373520 
M69.059074,122.450134 
	C96.449738,147.045105 127.062286,163.494522 165.343994,161.199463 
	C170.279495,160.903549 172.656006,159.079620 173.477585,153.912033 
	C155.418442,150.300156 137.410095,146.698425 118.787453,142.973846 
	C120.825829,140.121780 122.418892,137.892776 124.475456,135.015259 
	C109.772232,129.593079 95.508705,124.333038 80.776573,118.900200 
	C83.769577,114.489868 86.423622,110.579010 89.420052,106.163620 
	C77.305260,101.374374 65.805328,96.828201 54.378983,92.311111 
	C49.480553,101.342117 49.475941,102.214600 55.590679,108.793121 
	C59.780483,113.300697 64.229088,117.567726 69.059074,122.450134 
M155.487030,178.063278 
	C158.043060,175.671371 160.599075,173.279449 163.155106,170.887527 
	C140.185791,170.403931 119.340210,165.098526 99.769775,154.608795 
	C80.249046,144.145706 63.639233,129.968674 48.422028,113.655869 
	C45.783070,120.824379 45.825031,124.252655 50.163303,128.920670 
	C58.863857,138.282532 67.406624,147.933548 77.088188,156.209152 
	C93.286911,170.055496 111.940895,179.524033 133.508896,181.622574 
	C140.697983,182.322052 148.514008,184.448868 155.487030,178.063278 
M74.953529,165.570587 
	C70.516716,161.799057 65.985176,158.132187 61.670059,154.226196 
	C57.462517,150.417618 53.476234,146.364594 49.392811,142.418884 
	C58.060669,183.681946 101.960541,200.793381 129.888397,190.151779 
	C109.665230,186.287811 91.617027,178.314529 74.953529,165.570587 
z"/>
<path fill="#077DC0" opacity="1.000000" stroke="none" 
	d="
M88.874840,29.956038 
	C96.729408,21.686771 104.583984,13.417507 112.520088,5.062412 
	C115.608261,14.144717 118.486313,22.516880 121.296028,30.911917 
	C122.669762,35.016422 125.188820,36.890854 129.750809,36.892727 
	C140.423508,36.897106 149.673187,41.607212 158.970200,46.272556 
	C179.933365,56.792126 192.336700,73.862862 198.036285,97.020332 
	C198.371735,99.528183 198.754669,101.236557 199.137604,102.944923 
	C199.357864,103.748222 199.578110,104.551521 199.529892,106.005081 
	C198.811157,114.412849 198.360916,122.170372 197.658112,130.205597 
	C196.456772,133.572906 195.507950,136.662521 194.559143,139.752121 
	C194.101486,139.622192 193.643845,139.492264 193.186188,139.362320 
	C193.780777,135.908035 194.375381,132.453735 194.982391,128.531372 
	C194.998642,123.441422 195.412659,118.772484 194.889206,114.211121 
	C194.380814,109.781013 192.910660,105.461281 191.862854,101.093079 
	C186.209213,82.664848 176.077087,67.336098 159.523148,57.134277 
	C152.735519,52.951214 144.930176,50.396961 137.511856,47.282646 
	C136.304092,46.775612 134.700516,47.211395 131.777100,47.211395 
	C143.935715,57.659420 154.967712,67.492012 163.069366,80.703491 
	C163.472794,81.527023 163.735107,81.761688 163.997437,81.996353 
	C163.997437,81.996353 164.001221,82.000061 164.014069,82.308975 
	C164.388885,83.065147 164.750870,83.512405 165.112854,83.959663 
	C165.112854,83.959663 165.028229,83.965950 165.039948,84.261322 
	C165.693985,85.376793 166.336319,86.196892 166.978653,87.016998 
	C166.978653,87.016991 167.000000,87.000305 167.000412,87.312149 
	C167.347092,88.078789 167.693359,88.533592 168.039612,88.988403 
	C168.039612,88.988403 167.993546,88.990257 168.011261,89.283310 
	C168.378891,90.043243 168.728790,90.510132 169.078705,90.977028 
	C169.078705,90.977028 169.006042,90.980080 169.019516,91.263741 
	C169.378876,92.019348 169.724762,92.491295 170.070648,92.963242 
	C170.070648,92.963242 169.996414,92.980171 170.001755,93.335678 
	C170.668762,94.792419 171.330429,95.893646 171.992096,96.994881 
	C171.992096,96.994881 172.006271,97.003746 171.995010,97.379730 
	C172.654694,99.173058 173.325638,100.590393 173.996582,102.007736 
	C173.996597,102.007729 173.999390,102.000710 173.983215,102.430420 
	C174.507828,106.100883 173.103973,107.407990 169.903503,106.996704 
	C165.101501,106.379623 160.295654,105.792534 155.491440,105.192688 
	C155.491440,105.192688 155.211639,105.269051 154.874359,104.887024 
	C153.825653,104.425545 153.114227,104.346092 152.402817,104.266640 
	C152.402817,104.266640 152.156784,104.322517 151.863068,103.926865 
	C150.860352,103.419769 150.151352,103.308327 149.442337,103.196884 
	C149.442337,103.196884 149.190903,103.254257 148.906250,102.881790 
	C147.748886,102.337898 146.876160,102.166466 146.003433,101.995033 
	C146.003433,101.995033 146.000000,102.000000 145.829956,101.741364 
	C145.078262,101.341431 144.496643,101.200134 143.915009,101.058830 
	C143.915009,101.058830 143.975433,101.012901 143.795532,100.754257 
	C141.425018,99.653809 139.234406,98.812012 137.043808,97.970215 
	C137.043808,97.970215 137.018906,98.006325 136.855667,97.739044 
	C136.144409,97.302048 135.596390,97.132332 135.048370,96.962616 
	C135.048370,96.962616 135.023331,97.005745 134.863358,96.680832 
	C133.085724,95.611855 131.468063,94.867775 129.850403,94.123695 
	C129.850403,94.123695 129.935364,94.082664 129.803833,93.839142 
	C129.093796,93.410011 128.515274,93.224419 127.936752,93.038826 
	C127.936752,93.038826 127.986359,92.998650 127.830582,92.768829 
	C127.113380,92.359406 126.551949,92.179810 125.990517,92.000221 
	C125.990517,92.000221 125.999557,91.998322 125.858582,91.697189 
	C124.750839,90.953156 123.784065,90.510254 122.817299,90.067352 
	C104.719208,79.827888 88.724159,66.786240 72.915260,53.016403 
	C75.676514,48.365067 78.295601,43.953217 81.121536,39.056152 
	C81.566811,38.420219 81.778023,38.237949 81.962021,38.024128 
	C81.962021,38.024128 82.009407,38.044697 82.361099,37.966217 
	C84.432655,35.566563 86.152519,33.245388 87.872383,30.924213 
	C87.872383,30.924215 87.950218,30.957006 88.191925,30.874184 
	C88.756409,30.605745 88.903481,30.327305 88.874840,29.956038 
M137.833557,70.411095 
	C133.000946,69.528160 129.684616,71.522598 128.052185,76.006523 
	C126.505859,80.253944 128.985504,84.926834 133.282379,86.470016 
	C137.069214,87.830017 141.502930,85.898193 143.304276,82.103371 
	C145.447006,77.589371 143.801163,73.658333 137.833557,70.411095 
M131.574066,60.228458 
	C129.771194,56.924774 127.058159,54.762661 123.607246,57.149666 
	C121.867111,58.353313 120.060707,61.864250 120.655045,63.434650 
	C121.406715,65.420776 124.552475,67.660507 126.703011,67.698936 
	C130.373901,67.764557 132.566437,65.092896 131.574066,60.228458 
z"/>
<path fill="#057DC1" opacity="1.000000" stroke="none" 
	d="
M198.213409,171.382935 
	C190.452194,188.825089 177.080933,201.220795 161.070251,211.949249 
	C158.236633,213.339371 156.115128,214.663086 153.993622,215.986801 
	C153.993622,215.986801 153.997009,216.001785 153.594513,215.987778 
	C152.372940,216.074890 151.452377,215.967346 150.750244,216.308868 
	C142.114288,220.509552 133.022034,223.006912 123.492935,224.174255 
	C119.606857,224.650314 115.802765,225.795624 111.961372,226.636444 
	C111.532318,226.691254 111.103256,226.746078 110.221298,226.363770 
	C104.181068,225.315140 98.593727,224.703674 92.606400,224.055634 
	C85.647209,222.405853 79.088013,220.792618 72.528816,219.179398 
	C72.528816,219.179398 72.232971,219.209839 71.945328,218.854004 
	C71.071632,218.357285 70.485596,218.216385 69.899551,218.075485 
	C69.899551,218.075485 69.967911,218.026367 69.811195,217.787842 
	C69.056358,217.405029 68.458237,217.260773 67.860115,217.116516 
	C67.860115,217.116516 67.938782,217.076111 67.785011,216.814331 
	C66.374176,216.072159 65.117119,215.591766 63.860062,215.111374 
	C63.860062,215.111374 63.940235,215.072647 63.801430,214.831161 
	C63.078323,214.416138 62.494030,214.242584 61.909737,214.069031 
	C61.909737,214.069031 61.974716,214.014252 61.820305,213.781006 
	C61.086880,213.373718 60.507862,213.199692 59.928841,213.025665 
	C44.496384,204.623001 33.123730,192.201920 24.206791,176.522003 
	C23.325336,174.935059 22.651165,173.971130 21.976992,173.007202 
	C21.976990,173.007202 22.006058,173.008377 21.996464,172.712341 
	C21.652933,171.938141 21.318995,171.459976 20.985058,170.981812 
	C20.985058,170.981812 20.784678,170.795639 20.788935,170.349365 
	C20.532597,169.598236 20.272001,169.293365 20.011406,168.988495 
	C20.011408,168.988495 20.000076,168.999390 20.004557,168.697754 
	C19.697092,167.920181 19.385147,167.444244 19.073204,166.968307 
	C19.073208,166.968307 19.005117,166.947418 19.036148,166.592224 
	C18.692232,165.500610 18.317289,164.764206 17.942347,164.027786 
	C17.942347,164.027786 18.005476,164.021072 18.004665,163.690643 
	C17.626017,162.588989 17.248178,161.817780 16.870340,161.046555 
	C16.870338,161.046555 16.961014,161.039337 16.974621,160.688995 
	C16.300188,158.557617 15.612147,156.776611 14.924107,154.995590 
	C14.924106,154.995590 14.735783,154.770706 14.837765,154.175232 
	C13.845638,148.717224 12.751529,143.854706 11.657419,138.992172 
	C11.505218,138.553314 11.353014,138.114471 11.471746,136.990265 
	C12.450291,128.084488 13.058128,119.853783 13.903001,111.647484 
	C14.408212,106.740341 15.284611,101.871429 15.994164,96.985329 
	C15.994163,96.985329 16.002193,96.997322 16.320007,96.839325 
	C17.429787,94.125244 18.221748,91.569153 19.013712,89.013062 
	C19.013712,89.013062 18.999924,89.000305 19.249266,88.809135 
	C19.576693,88.220177 19.654778,87.822380 19.732864,87.424591 
	C24.804880,79.335144 29.876896,71.245689 35.533718,62.928444 
	C36.280544,62.335033 36.442558,61.969418 36.604576,61.603806 
	C36.604576,61.603806 36.530083,61.769547 36.865456,61.692791 
	C37.465027,61.070908 37.729229,60.525784 37.993431,59.980659 
	C37.993431,59.980659 38.001904,60.001480 38.229343,59.898048 
	C38.634476,59.507133 38.812172,59.219646 38.989868,58.932163 
	C39.038788,58.597878 39.204182,58.337605 39.953644,57.979568 
	C40.608738,57.524014 40.796234,57.240238 40.983734,56.956459 
	C40.983730,56.956459 41.001053,57.001366 41.217262,56.906887 
	C41.624741,56.542297 41.816017,56.272182 42.007290,56.002071 
	C42.007290,56.002071 42.000458,56.000458 42.320225,55.980087 
	C42.981049,55.504269 43.322102,55.048820 43.663162,54.593376 
	C43.663162,54.593376 43.891132,54.776131 44.056683,54.712685 
	C44.388599,54.322762 44.554962,53.996292 44.721329,53.669823 
	C44.721333,53.669823 44.850098,53.824360 45.052303,53.750660 
	C45.431320,53.356285 45.608135,53.035606 45.784950,52.714931 
	C45.784950,52.714931 45.864471,52.898808 46.149242,52.863724 
	C46.920464,52.170158 47.406918,51.511684 47.893372,50.853210 
	C47.893372,50.853210 47.948757,50.942482 48.155380,50.861408 
	C48.569645,50.505402 48.777283,50.230465 48.984924,49.955528 
	C48.984928,49.955532 48.993496,50.004730 49.338463,49.998970 
	C50.425220,49.283527 51.167019,48.573849 51.908813,47.864174 
	C51.908817,47.864174 51.955883,47.953568 52.161682,47.881958 
	C52.591904,47.557175 52.816330,47.304001 53.040756,47.050827 
	C53.040760,47.050831 53.199570,46.836662 53.660599,46.790562 
	C54.381367,46.409462 54.641106,46.074459 54.900841,45.739460 
	C55.533401,45.368931 56.165962,44.998398 57.224747,44.311131 
	C58.091412,43.656319 58.531849,43.318245 58.972282,42.980171 
	C58.972286,42.980171 59.002613,42.996799 59.353073,42.915138 
	C61.086060,42.598896 62.468578,42.364319 64.914223,41.949352 
	C63.375896,43.973454 62.627983,44.957539 61.880066,45.941628 
	C61.530594,46.256531 61.181118,46.571438 60.337753,47.049446 
	C59.529343,47.448750 59.214825,47.684956 58.698112,48.081009 
	C58.362251,48.550678 58.228588,48.860497 58.094925,49.170315 
	C58.094925,49.170315 58.071373,49.079468 57.851357,49.158932 
	C57.430157,49.535458 57.228977,49.832520 57.027794,50.129581 
	C56.969379,50.461391 56.794575,50.712029 55.948402,50.969212 
	C54.922302,51.697418 54.451180,52.337910 53.980057,52.978401 
	C53.980057,52.978397 54.000000,53.000000 53.669704,53.023956 
	C52.882145,53.684330 52.424881,54.320751 51.967617,54.957169 
	C51.967617,54.957169 52.000225,54.999439 51.749405,55.091217 
	C51.328632,55.462536 51.158672,55.742073 50.988716,56.021614 
	C50.965981,56.371109 50.809139,56.643345 50.042561,57.018867 
	C49.393112,57.498165 49.219296,57.796913 49.045479,58.095665 
	C49.045475,58.095661 49.019096,58.022961 48.806061,58.133286 
	C48.428970,58.554291 48.264919,58.864971 48.100868,59.175652 
	C48.100868,59.175652 48.085003,59.075764 47.817551,59.165203 
	C47.128563,59.950222 46.707024,60.645802 46.285484,61.341381 
	C46.285488,61.341381 46.238972,61.205132 45.983902,61.279446 
	C45.497311,61.922672 45.265797,62.491585 45.034283,63.060501 
	C45.034283,63.060501 44.999207,63.008595 44.786133,63.130508 
	C44.430176,63.571892 44.287292,63.891361 44.144402,64.210831 
	C44.144402,64.210831 44.110733,64.097122 43.789902,64.125916 
	C43.018448,65.151619 42.567825,66.148529 42.117203,67.145432 
	C42.117203,67.145432 42.073753,67.065826 41.834469,67.209961 
	C41.460011,67.744087 41.324841,68.134087 41.189671,68.524086 
	C41.189671,68.524086 41.201672,68.800514 40.801208,69.035599 
	C39.946045,70.200966 39.491348,71.131241 39.036652,72.061516 
	C39.036652,72.061516 38.998787,72.011520 38.766518,72.164612 
	C38.353657,72.878815 38.173061,73.439926 37.992466,74.001045 
	C37.992466,74.001045 37.999191,73.999001 37.642353,74.053131 
	C36.513184,76.058090 35.740856,78.008911 34.968525,79.959732 
	C34.968525,79.959732 35.004700,79.981140 34.740059,80.157433 
	C34.321095,80.898331 34.166763,81.462944 34.012436,82.027550 
	C34.012436,82.027550 33.994106,82.007057 33.744637,82.175323 
	C33.363094,82.934959 33.231018,83.526321 33.098946,84.117683 
	C33.098946,84.117683 33.044029,84.045029 32.776741,84.224304 
	C31.692122,87.292068 30.874788,90.180557 30.057453,93.069046 
	C30.057453,93.069046 29.998198,93.023094 29.726807,93.226631 
	C29.012749,94.311432 28.417978,95.149025 28.150505,96.080589 
	C24.802776,107.740181 25.802595,119.702461 26.334114,131.523361 
	C26.538727,136.073914 29.245829,140.511932 30.812717,145.001236 
	C35.510361,154.137817 39.405647,163.812073 45.086563,172.289764 
	C54.501637,186.340012 67.907532,195.955688 83.980339,202.944122 
	C87.264656,204.333176 90.123199,205.159409 92.981750,205.985657 
	C92.981750,205.985657 93.003593,205.985214 93.226418,206.292419 
	C106.106140,211.301270 119.191376,210.506073 132.224701,209.278778 
	C135.881516,208.934433 139.399994,207.121033 142.981918,205.981476 
	C142.981918,205.981476 142.998779,206.000000 143.382797,206.006622 
	C145.510712,205.340164 147.254608,204.667084 148.998489,203.993988 
	C148.998489,203.993988 148.999390,204.000610 149.340790,204.006805 
	C150.443039,203.635468 151.203903,203.257904 151.964752,202.880341 
	C151.964752,202.880341 151.960892,202.963730 152.240051,202.960999 
	C153.014725,202.637497 153.510239,202.316711 154.005737,201.995926 
	C154.005737,201.995926 153.999512,202.002625 154.338623,202.010666 
	C155.446671,201.654327 156.215607,201.289948 156.984543,200.925568 
	C166.324631,193.839127 176.435028,187.540710 184.753540,179.409210 
	C191.056915,173.247528 195.075912,164.748901 200.708099,157.107269 
	C201.535538,156.948349 201.766312,156.972336 201.998535,156.998169 
	C202.000000,157.000000 202.003662,157.002960 202.008636,157.416565 
	C201.685196,160.238525 201.356766,162.646896 201.028351,165.055252 
	C201.028351,165.055252 200.994202,165.011459 200.726105,165.205658 
	C200.021362,166.731491 199.584732,168.063126 199.148102,169.394760 
	C199.148102,169.394760 199.160873,169.729050 198.826813,170.025970 
	C198.399628,170.676224 198.306519,171.029587 198.213409,171.382935 
z"/>
<path fill="#F9B91E" opacity="1.000000" stroke="none" 
	d="
M68.810532,122.196213 
	C64.229088,117.567726 59.780483,113.300697 55.590679,108.793121 
	C49.475941,102.214600 49.480553,101.342117 54.378983,92.311111 
	C65.805328,96.828201 77.305260,101.374374 89.420052,106.163620 
	C86.423622,110.579010 83.769577,114.489868 80.776573,118.900200 
	C95.508705,124.333038 109.772232,129.593079 124.475456,135.015259 
	C122.418892,137.892776 120.825829,140.121780 118.787453,142.973846 
	C137.410095,146.698425 155.418442,150.300156 173.477585,153.912033 
	C172.656006,159.079620 170.279495,160.903549 165.343994,161.199463 
	C127.062286,163.494522 96.449738,147.045105 68.810532,122.196213 
z"/>
<path fill="#8FC546" opacity="1.000000" stroke="none" 
	d="
M155.210678,178.303299 
	C148.514008,184.448868 140.697983,182.322052 133.508896,181.622574 
	C111.940895,179.524033 93.286911,170.055496 77.088188,156.209152 
	C67.406624,147.933548 58.863857,138.282532 50.163303,128.920670 
	C45.825031,124.252655 45.783070,120.824379 48.422028,113.655869 
	C63.639233,129.968674 80.249046,144.145706 99.769775,154.608795 
	C119.340210,165.098526 140.185791,170.403931 163.155106,170.887527 
	C160.599075,173.279449 158.043060,175.671371 155.210678,178.303299 
z"/>
<path fill="#90C548" opacity="1.000000" stroke="none" 
	d="
M75.233681,165.794159 
	C91.617027,178.314529 109.665230,186.287811 129.888397,190.151779 
	C101.960541,200.793381 58.060669,183.681946 49.392811,142.418884 
	C53.476234,146.364594 57.462517,150.417618 61.670059,154.226196 
	C65.985176,158.132187 70.516716,161.799057 75.233681,165.794159 
z"/>
<path fill="#F7BA26" opacity="1.000000" stroke="none" 
	d="
M129.083923,103.901817 
	C141.235184,109.275352 153.301239,114.904907 166.734192,116.425507 
	C168.053925,116.574898 169.369598,116.813507 170.693024,116.867859 
	C178.882507,117.204201 179.473877,117.203392 179.293762,125.531822 
	C179.133881,132.924271 177.633102,140.314423 176.305344,147.629547 
	C176.074814,148.899658 173.321854,150.988144 172.478638,150.677475 
	C161.605728,146.671478 150.867950,142.298691 139.422089,137.750916 
	C141.520691,135.460709 143.146378,133.686600 145.157822,131.491531 
	C141.924667,129.859009 139.020020,128.392365 135.970673,126.566910 
	C135.825958,126.208099 136.061920,125.937485 136.447189,125.957901 
	C145.727737,127.668671 147.178650,130.114059 143.462097,137.320282 
	C153.487228,141.340897 163.502045,145.357391 175.028717,149.980209 
	C176.076508,140.304153 177.046600,131.462112 177.985504,122.616745 
	C178.352051,119.163353 176.700516,117.985741 173.307648,117.936165 
	C167.870544,117.856735 162.440079,117.321877 156.753937,116.705139 
	C155.002670,116.283989 153.504272,116.137215 151.833862,115.674103 
	C149.442551,114.567711 147.223221,113.777641 144.766968,112.718628 
	C139.298965,109.692635 134.067902,106.935593 128.898804,104.109558 
	C128.960800,104.040565 129.083923,103.901817 129.083923,103.901817 
z"/>
<path fill="#CCF0F9" opacity="1.000000" stroke="none" 
	d="
M62.256008,45.956459 
	C62.627983,44.957539 63.375896,43.973454 64.914223,41.949352 
	C62.468578,42.364319 61.086060,42.598896 59.341473,42.901306 
	C60.561878,41.724533 61.963459,39.993973 63.760250,39.325142 
	C69.475571,37.197697 75.357468,35.522476 81.133247,33.550209 
	C83.178413,32.851837 85.103485,31.801783 87.477890,30.918247 
	C86.152519,33.245388 84.432655,35.566563 82.378166,37.946827 
	C81.271446,34.693375 79.661949,36.386055 78.077728,37.288967 
	C72.946472,40.213490 67.783005,43.081509 62.256008,45.956459 
z"/>
<path fill="#237CB3" opacity="1.000000" stroke="none" 
	d="
M194.969971,128.999451 
	C194.375381,132.453735 193.780777,135.908035 193.186188,139.362320 
	C193.643845,139.492264 194.101486,139.622192 194.559143,139.752121 
	C195.507950,136.662521 196.456772,133.572906 197.691406,130.540985 
	C197.987518,131.045334 197.997803,131.491989 198.008087,131.938660 
	C195.113052,139.849472 192.218002,147.760284 189.322968,155.671097 
	C188.771927,155.492447 188.220901,155.313797 187.669861,155.135147 
	C189.693298,146.014572 191.716736,136.893997 193.907318,127.699097 
	C194.372971,128.082993 194.671463,128.541229 194.969971,128.999451 
z"/>
<path fill="#237CB1" opacity="1.000000" stroke="none" 
	d="
M30.803738,144.614990 
	C29.245829,140.511932 26.538727,136.073914 26.334114,131.523361 
	C25.802595,119.702461 24.802776,107.740181 28.150505,96.080589 
	C28.417978,95.149025 29.012749,94.311432 29.764038,93.230988 
	C26.740252,107.779854 25.559013,122.579117 29.056900,137.480789 
	C29.587563,139.741516 30.213102,141.979980 30.803738,144.614990 
z"/>
<path fill="#297EB3" opacity="1.000000" stroke="none" 
	d="
M112.391838,226.739166 
	C115.802765,225.795624 119.606857,224.650314 123.492935,224.174255 
	C133.022034,223.006912 142.114288,220.509552 150.750244,216.308868 
	C151.452377,215.967346 152.372940,216.074890 153.587280,215.981964 
	C141.215195,223.221130 127.256310,225.932556 112.391838,226.739166 
z"/>
<path fill="#1F76AA" opacity="1.000000" stroke="none" 
	d="
M142.570129,205.950928 
	C139.399994,207.121033 135.881516,208.934433 132.224701,209.278778 
	C119.191376,210.506073 106.106140,211.301270 93.235664,206.298248 
	C100.714005,206.982941 108.412025,208.793564 116.096222,208.736664 
	C124.790070,208.672318 133.471512,206.931946 142.570129,205.950928 
z"/>
<path fill="#257BAF" opacity="1.000000" stroke="none" 
	d="
M15.771505,97.275009 
	C15.284611,101.871429 14.408212,106.740341 13.903001,111.647484 
	C13.058128,119.853783 12.450291,128.084488 11.503786,136.637451 
	C10.008914,123.543098 11.170407,110.379028 15.771505,97.275009 
z"/>
<path fill="#2276AA" opacity="1.000000" stroke="none" 
	d="
M201.297928,164.819153 
	C201.356766,162.646896 201.685196,160.238525 202.149323,157.363892 
	C202.189041,156.930527 202.093063,156.963425 201.997086,156.996338 
	C201.766312,156.972336 201.535538,156.948349 200.962494,156.862762 
	C202.315491,152.161621 204.010773,147.522064 205.706039,142.882492 
	C206.136215,142.998734 206.566391,143.114975 206.996552,143.231232 
	C206.184448,150.558044 204.376190,157.675613 201.297928,164.819153 
z"/>
<path fill="#F7BA26" opacity="1.000000" stroke="none" 
	d="
M118.583237,118.451096 
	C114.037514,116.487457 109.491791,114.523811 104.183624,112.230812 
	C106.089355,109.776985 107.558907,107.884796 109.435593,105.926537 
	C109.842743,105.860466 110.076004,106.057961 110.013657,106.396667 
	C109.137146,108.270691 108.322990,109.806007 107.697807,110.984955 
	C111.668106,113.413940 115.363739,115.674904 118.938904,118.063339 
	C118.818436,118.190826 118.583237,118.451103 118.583237,118.451096 
z"/>
<path fill="#F7BA26" opacity="1.000000" stroke="none" 
	d="
M109.726212,105.761597 
	C111.406136,103.309364 110.937103,101.797134 108.198517,100.454041 
	C105.008553,98.889587 102.050758,96.851723 98.896515,94.626862 
	C98.800797,94.234436 99.055634,93.940498 99.413834,93.965149 
	C101.514198,94.660713 103.256371,95.331635 105.162369,96.313332 
	C107.836472,98.059654 110.346733,99.495201 113.486359,101.290665 
	C112.247307,103.022728 111.161652,104.540344 110.076004,106.057961 
	C110.076004,106.057961 109.842743,105.860466 109.726212,105.761597 
z"/>
<path fill="#287AAC" opacity="1.000000" stroke="none" 
	d="
M155.759140,105.486183 
	C160.295654,105.792534 165.101501,106.379623 169.903503,106.996704 
	C173.103973,107.407990 174.507828,106.100883 173.980499,102.429153 
	C174.758133,103.783340 175.522293,105.568512 176.578140,108.035118 
	C169.165985,109.120461 162.585175,107.583412 155.759140,105.486183 
z"/>
<path fill="#F7BA26" opacity="1.000000" stroke="none" 
	d="
M63.907486,74.103378 
	C63.554203,72.957352 62.597076,71.557411 62.953495,70.709824 
	C64.398300,67.273949 66.246895,64.007866 68.165405,60.250454 
	C69.673172,61.488171 70.770920,62.389305 71.938377,63.645634 
	C72.008087,64.000832 71.894371,64.144325 71.524185,64.100876 
	C65.676132,65.058365 64.979012,69.474472 64.112335,73.889435 
	C64.043594,73.960312 63.907490,74.103378 63.907486,74.103378 
z"/>
<path fill="#F7BA26" opacity="1.000000" stroke="none" 
	d="
M135.710449,126.345535 
	C130.093414,123.960297 124.591919,121.437630 118.836823,118.683029 
	C118.583237,118.451103 118.818436,118.190826 119.322479,118.086067 
	C120.882622,118.318398 121.957039,118.607338 122.991631,119.000961 
	C127.333130,120.652740 131.662720,122.335846 135.998764,124.329803 
	C136.021225,125.080574 136.041565,125.509033 136.061920,125.937485 
	C136.061920,125.937485 135.825958,126.208099 135.710449,126.345535 
z"/>
<path fill="#2374A7" opacity="1.000000" stroke="none" 
	d="
M194.982391,128.531372 
	C194.671463,128.541229 194.372971,128.082993 194.048157,127.337936 
	C193.297073,118.677612 192.572327,110.304115 191.855225,101.511848 
	C192.910660,105.461281 194.380814,109.781013 194.889206,114.211121 
	C195.412659,118.772484 194.998642,123.441422 194.982391,128.531372 
z"/>
<path fill="#F7BA26" opacity="1.000000" stroke="none" 
	d="
M115.088875,95.900803 
	C119.618011,98.387589 124.147148,100.874382 128.880096,103.631500 
	C129.083923,103.901817 128.960800,104.040565 128.526245,104.054489 
	C124.727783,102.712883 121.363892,101.357353 117.741814,99.892700 
	C116.991310,99.517891 116.499001,99.252205 115.884369,98.704254 
	C115.452705,97.672546 115.143341,96.923096 114.897903,96.105621 
	C114.961830,96.037598 115.088875,95.900803 115.088875,95.900803 
z"/>
<path fill="#297EB3" opacity="1.000000" stroke="none" 
	d="
M93.006393,224.092209 
	C98.593727,224.703674 104.181068,225.315140 109.903412,226.288055 
	C104.586166,226.228653 99.133904,225.807831 93.336563,224.980804 
	C92.991486,224.574615 93.006393,224.092209 93.006393,224.092209 
z"/>
<path fill="#277BAE" opacity="1.000000" stroke="none" 
	d="
M92.606400,224.055634 
	C93.006393,224.092209 92.991486,224.574615 92.979790,224.815628 
	C86.312584,223.291946 79.657074,221.527252 72.765190,219.470978 
	C79.088013,220.792618 85.647209,222.405853 92.606400,224.055634 
z"/>
<path fill="#2B78A7" opacity="1.000000" stroke="none" 
	d="
M198.184067,131.603622 
	C197.997803,131.491989 197.987518,131.045334 197.943939,130.263275 
	C198.360916,122.170372 198.811157,114.412849 199.507385,106.321831 
	C199.288895,114.415077 198.824463,122.841835 198.184067,131.603622 
z"/>
<path fill="#F7BA26" opacity="1.000000" stroke="none" 
	d="
M97.120163,83.867157 
	C100.722603,86.268135 104.325043,88.669113 108.038406,91.450233 
	C108.149323,91.830376 107.952164,92.068512 107.714233,92.051193 
	C107.476311,92.033882 106.998650,92.026855 106.649796,91.981270 
	C103.148064,89.346313 99.995193,86.756950 96.911926,84.092606 
	C96.981529,84.017624 97.120163,83.867149 97.120163,83.867157 
z"/>
<path fill="#257BAF" opacity="1.000000" stroke="none" 
	d="
M11.588804,139.380127 
	C12.751529,143.854706 13.845638,148.717224 14.881306,154.035187 
	C13.721972,149.583099 12.621080,144.675598 11.588804,139.380127 
z"/>
<path fill="#F7BA26" opacity="1.000000" stroke="none" 
	d="
M89.138695,77.848381 
	C91.689606,79.661865 94.240517,81.475342 96.955795,83.577988 
	C97.120163,83.867149 96.981529,84.017624 96.533249,84.038574 
	C91.795631,84.391335 90.408081,81.170479 88.925385,78.077286 
	C88.996681,78.001167 89.138695,77.848381 89.138695,77.848381 
z"/>
<path fill="#F7BA26" opacity="1.000000" stroke="none" 
	d="
M90.967743,90.038368 
	C87.751266,88.232361 84.534798,86.426361 81.191734,84.277527 
	C81.065147,83.934700 81.193054,83.806206 81.556740,83.866623 
	C85.006653,85.885895 88.092880,87.844757 91.126144,89.862206 
	C91.073181,89.920784 90.967743,90.038368 90.967743,90.038368 
z"/>
<path fill="#F7BA26" opacity="1.000000" stroke="none" 
	d="
M81.001266,83.999008 
	C78.984642,83.015602 77.031906,81.967880 74.968018,80.544182 
	C74.856873,80.168205 75.077812,79.921539 75.456009,79.948181 
	C77.554611,79.653877 79.275009,79.332924 80.994583,79.415283 
	C81.060196,81.147797 81.126625,82.476997 81.193054,83.806206 
	C81.193054,83.806206 81.065147,83.934700 81.001266,83.999008 
z"/>
<path fill="#F7BA26" opacity="1.000000" stroke="none" 
	d="
M78.050072,68.953094 
	C79.963943,70.404007 81.877823,71.854927 83.885681,73.663841 
	C83.979675,74.021843 83.840698,74.167946 83.490311,74.109894 
	C81.759911,73.700211 80.379890,73.348579 78.752563,72.995491 
	C78.505249,72.994034 78.010620,72.992081 78.009140,72.603546 
	C77.948021,71.184822 77.888374,70.154633 77.884552,69.082260 
	C77.940392,69.040070 78.050072,68.953094 78.050072,68.953094 
z"/>
<path fill="#F7BA26" opacity="1.000000" stroke="none" 
	d="
M98.673019,94.381088 
	C96.148720,93.214706 93.752213,91.901672 91.161728,90.313499 
	C90.967743,90.038368 91.073181,89.920784 91.495461,89.922447 
	C94.297035,91.262909 96.676338,92.601700 99.055634,93.940498 
	C99.055634,93.940498 98.800797,94.234436 98.673019,94.381088 
z"/>
<path fill="#F7BA26" opacity="1.000000" stroke="none" 
	d="
M70.894501,78.119499 
	C68.696609,76.961449 66.498718,75.803398 64.104156,74.374367 
	C63.907490,74.103378 64.043594,73.960312 64.474770,73.946259 
	C66.989357,75.231384 69.072777,76.530556 71.090622,77.902039 
	C71.025055,77.974350 70.894501,78.119499 70.894501,78.119499 
z"/>
<path fill="#257BAF" opacity="1.000000" stroke="none" 
	d="
M18.783417,89.275635 
	C18.221748,91.569153 17.429787,94.125244 16.314161,96.840408 
	C16.844707,94.512390 17.698915,92.025299 18.783417,89.275635 
z"/>
<path fill="#237CB1" opacity="1.000000" stroke="none" 
	d="
M30.294004,92.799126 
	C30.874788,90.180557 31.692122,87.292068 32.822247,84.226021 
	C32.266876,86.875374 31.398714,89.702293 30.294004,92.799126 
z"/>
<path fill="#297EB3" opacity="1.000000" stroke="none" 
	d="
M154.343933,215.967316 
	C156.115128,214.663086 158.236633,213.339371 160.740143,212.030518 
	C158.979523,213.346207 156.836884,214.647034 154.343933,215.967316 
z"/>
<path fill="#1F76AA" opacity="1.000000" stroke="none" 
	d="
M92.706833,205.763794 
	C90.123199,205.159409 87.264656,204.333176 84.217239,203.201416 
	C86.829559,203.777908 89.630730,204.659912 92.706833,205.763794 
z"/>
<path fill="#F7BA26" opacity="1.000000" stroke="none" 
	d="
M84.049179,73.948807 
	C85.684990,75.011307 87.251297,76.146843 88.978149,77.565384 
	C89.138695,77.848381 88.996681,78.001167 88.579506,78.023712 
	C86.721786,76.753494 85.281242,75.460716 83.840698,74.167946 
	C83.840698,74.167946 83.979675,74.021843 84.049179,73.948807 
z"/>
<path fill="#237CB1" opacity="1.000000" stroke="none" 
	d="
M35.186729,79.706924 
	C35.740856,78.008911 36.513184,76.058090 37.641144,74.049088 
	C37.132828,75.811981 36.268883,77.633057 35.186729,79.706924 
z"/>
<path fill="#287AAC" opacity="1.000000" stroke="none" 
	d="
M137.293228,98.202682 
	C139.234406,98.812012 141.425018,99.653809 143.796417,100.792191 
	C141.832367,100.204239 139.687500,99.319702 137.293228,98.202682 
z"/>
<path fill="#1F76AA" opacity="1.000000" stroke="none" 
	d="
M148.633636,203.978424 
	C147.254608,204.667084 145.510712,205.340164 143.377228,205.996384 
	C144.748032,205.307297 146.508408,204.635056 148.633636,203.978424 
z"/>
<path fill="#F7BA26" opacity="1.000000" stroke="none" 
	d="
M73.151672,64.854446 
	C74.331924,65.729126 75.512169,66.603806 76.799500,67.804504 
	C76.906586,68.130516 76.861404,68.197357 76.514114,68.137657 
	C75.067787,67.085609 73.968750,66.093254 72.941429,65.040695 
	C73.013145,64.980476 73.151672,64.854446 73.151672,64.854446 
z"/>
<path fill="#257BAF" opacity="1.000000" stroke="none" 
	d="
M14.896124,155.369537 
	C15.612147,156.776611 16.300188,158.557617 16.947292,160.725342 
	C16.226950,159.322525 15.547546,157.533005 14.896124,155.369537 
z"/>
<path fill="#287AAC" opacity="1.000000" stroke="none" 
	d="
M130.027985,94.406586 
	C131.468063,94.867775 133.085724,95.611855 134.863403,96.656342 
	C133.417465,96.200989 131.811508,95.445236 130.027985,94.406586 
z"/>
<path fill="#F7BA26" opacity="1.000000" stroke="none" 
	d="
M74.749146,80.293945 
	C73.506927,79.834099 72.372421,79.248497 71.066208,78.391197 
	C70.894501,78.119499 71.025055,77.974350 71.468994,77.954865 
	C72.939240,77.961037 73.965561,77.986694 74.996643,78.331329 
	C75.026878,79.074059 75.052345,79.497795 75.077812,79.921539 
	C75.077812,79.921539 74.856873,80.168205 74.749146,80.293945 
z"/>
<path fill="#287AAC" opacity="1.000000" stroke="none" 
	d="
M174.013474,101.658920 
	C173.325638,100.590393 172.654694,99.173058 171.991852,97.387756 
	C172.676758,98.449890 173.353561,99.879997 174.013474,101.658920 
z"/>
<path fill="#257BAF" opacity="1.000000" stroke="none" 
	d="
M21.984859,173.318970 
	C22.651165,173.971130 23.325336,174.935059 23.977482,176.240082 
	C23.301212,175.597702 22.646969,174.614227 21.984859,173.318970 
z"/>
<path fill="#2B78A7" opacity="1.000000" stroke="none" 
	d="
M199.179688,102.554916 
	C198.754669,101.236557 198.371735,99.528183 198.014679,97.417709 
	C198.434296,98.732048 198.828018,100.448479 199.179688,102.554916 
z"/>
<path fill="#287AAC" opacity="1.000000" stroke="none" 
	d="
M171.994354,96.662155 
	C171.330429,95.893646 170.668762,94.792419 170.031387,93.311745 
	C170.702667,94.064667 171.349655,95.197044 171.994354,96.662155 
z"/>
<path fill="#257FB5" opacity="1.000000" stroke="none" 
	d="
M51.603188,47.926971 
	C51.167019,48.573849 50.425220,49.283527 49.318977,49.983337 
	C49.735535,49.312233 50.516548,48.651001 51.603188,47.926971 
z"/>
<path fill="#2276AA" opacity="1.000000" stroke="none" 
	d="
M199.434708,169.185760 
	C199.584732,168.063126 200.021362,166.731491 200.753708,165.202744 
	C200.606720,166.329330 200.164017,167.653061 199.434708,169.185760 
z"/>
<path fill="#F7BA26" opacity="1.000000" stroke="none" 
	d="
M112.012138,93.985893 
	C112.931152,94.445114 113.850174,94.904335 114.929031,95.632179 
	C115.088875,95.900803 114.961830,96.037598 114.571503,96.047195 
	C113.392067,95.435814 112.602959,94.814842 111.863503,94.141937 
	C111.913147,94.090019 112.012138,93.985893 112.012138,93.985893 
z"/>
<path fill="#277BAE" opacity="1.000000" stroke="none" 
	d="
M64.038696,215.397644 
	C65.117119,215.591766 66.374176,216.072159 67.787460,216.858475 
	C66.701561,216.670914 65.459450,216.177414 64.038696,215.397644 
z"/>
<path fill="#237CB1" opacity="1.000000" stroke="none" 
	d="
M42.393147,66.995255 
	C42.567825,66.148529 43.018448,65.151619 43.840149,64.157394 
	C43.697182,65.055069 43.183136,65.950066 42.393147,66.995255 
z"/>
<path fill="#287AAC" opacity="1.000000" stroke="none" 
	d="
M166.962524,86.700043 
	C166.336319,86.196892 165.693985,85.376793 165.063599,84.226089 
	C165.699158,84.724693 166.322769,85.553886 166.962524,86.700043 
z"/>
<path fill="#257FB5" opacity="1.000000" stroke="none" 
	d="
M47.605179,50.936405 
	C47.406918,51.511684 46.920464,52.170158 46.082062,52.789421 
	C46.259068,52.173340 46.788029,51.596470 47.605179,50.936405 
z"/>
<path fill="#237CB1" opacity="1.000000" stroke="none" 
	d="
M39.302689,71.892982 
	C39.491348,71.131241 39.946045,70.200966 40.694744,69.123940 
	C40.515408,69.892944 40.042068,70.808701 39.302689,71.892982 
z"/>
<path fill="#287AAC" opacity="1.000000" stroke="none" 
	d="
M122.984634,90.342972 
	C123.784065,90.510254 124.750839,90.953156 125.860313,91.700638 
	C125.052666,91.543015 124.102318,91.080795 122.984634,90.342972 
z"/>
<path fill="#237CB1" opacity="1.000000" stroke="none" 
	d="
M54.263020,52.888870 
	C54.451180,52.337910 54.922302,51.697418 55.720772,51.028717 
	C55.547401,51.600117 55.046688,52.199726 54.263020,52.888870 
z"/>
<path fill="#287AAC" opacity="1.000000" stroke="none" 
	d="
M146.252594,102.213615 
	C146.876160,102.166466 147.748886,102.337898 148.820679,102.785339 
	C148.180405,102.851631 147.341095,102.641914 146.252594,102.213615 
z"/>
<path fill="#237CB1" opacity="1.000000" stroke="none" 
	d="
M52.240257,54.852276 
	C52.424881,54.320751 52.882145,53.684330 53.658913,53.013870 
	C53.489914,53.569016 53.001404,54.158199 52.240257,54.852276 
z"/>
<path fill="#257BAF" opacity="1.000000" stroke="none" 
	d="
M16.865587,161.380402 
	C17.248178,161.817780 17.626017,162.588989 17.978577,163.708862 
	C17.589144,163.276413 17.224987,162.495331 16.865587,161.380402 
z"/>
<path fill="#257BAF" opacity="1.000000" stroke="none" 
	d="
M17.925301,164.347992 
	C18.317289,164.764206 18.692232,165.500610 19.064768,166.571030 
	C18.677658,166.159409 18.292957,165.413803 17.925301,164.347992 
z"/>
<path fill="#1F76AA" opacity="1.000000" stroke="none" 
	d="
M156.653961,200.867264 
	C156.215607,201.289948 155.446671,201.654327 154.333557,202.009979 
	C154.767380,201.603836 155.545380,201.206390 156.653961,200.867264 
z"/>
<path fill="#1F76AA" opacity="1.000000" stroke="none" 
	d="
M151.636353,202.882874 
	C151.203903,203.257904 150.443039,203.635468 149.336823,204.004471 
	C149.763641,203.625763 150.535797,203.255585 151.636353,202.882874 
z"/>
<path fill="#237CB1" opacity="1.000000" stroke="none" 
	d="
M46.564270,61.217270 
	C46.707024,60.645802 47.128563,59.950222 47.867268,59.174446 
	C47.737309,59.760551 47.290180,60.426857 46.564270,61.217270 
z"/>
<path fill="#257BAF" opacity="1.000000" stroke="none" 
	d="
M19.050886,167.262253 
	C19.385147,167.444244 19.697092,167.920181 20.010899,168.694122 
	C19.684694,168.513504 19.356632,168.034851 19.050886,167.262253 
z"/>
<path fill="#257BAF" opacity="1.000000" stroke="none" 
	d="
M20.985916,171.281189 
	C21.318995,171.459976 21.652933,171.938141 21.986454,172.723373 
	C21.652950,172.547150 21.319862,172.063843 20.985916,171.281189 
z"/>
<path fill="#1F76AA" opacity="1.000000" stroke="none" 
	d="
M153.698898,201.984833 
	C153.510239,202.316711 153.014725,202.637497 152.205292,202.937927 
	C152.391586,202.602982 152.891815,202.288361 153.698898,201.984833 
z"/>
<path fill="#287AAC" opacity="1.000000" stroke="none" 
	d="
M152.650635,104.525833 
	C153.114227,104.346092 153.825653,104.425545 154.765167,104.791565 
	C154.295013,104.980423 153.596741,104.882721 152.650635,104.525833 
z"/>
<path fill="#277BAE" opacity="1.000000" stroke="none" 
	d="
M60.113518,213.264587 
	C60.507862,213.199692 61.086880,213.373718 61.813801,213.822998 
	C61.407200,213.899979 60.852695,213.701736 60.113518,213.264587 
z"/>
<path fill="#287AAC" opacity="1.000000" stroke="none" 
	d="
M149.676849,103.469032 
	C150.151352,103.308327 150.860352,103.419769 151.778961,103.832848 
	C151.296173,104.003380 150.603760,103.872284 149.676849,103.469032 
z"/>
<path fill="#277BAE" opacity="1.000000" stroke="none" 
	d="
M62.080101,214.320526 
	C62.494030,214.242584 63.078323,214.416138 63.801147,214.875671 
	C63.376606,214.965134 62.813538,214.768585 62.080101,214.320526 
z"/>
<path fill="#CCF0F9" opacity="1.000000" stroke="none" 
	d="
M58.666550,42.998596 
	C58.531849,43.318245 58.091412,43.656319 57.343559,44.048546 
	C57.477703,43.740803 57.919262,43.378910 58.666550,42.998596 
z"/>
<path fill="#277BAE" opacity="1.000000" stroke="none" 
	d="
M68.025558,217.380798 
	C68.458237,217.260773 69.056358,217.405029 69.808983,217.829865 
	C69.372658,217.955322 68.781837,217.800201 68.025558,217.380798 
z"/>
<path fill="#277BAE" opacity="1.000000" stroke="none" 
	d="
M70.080002,218.326080 
	C70.485596,218.216385 71.071632,218.357285 71.836090,218.753113 
	C71.429817,218.864258 70.845139,218.720474 70.080002,218.326080 
z"/>
<path fill="#237CB1" opacity="1.000000" stroke="none" 
	d="
M45.296963,62.926037 
	C45.265797,62.491585 45.497311,61.922672 46.051689,61.303665 
	C46.102917,61.766235 45.831280,62.278904 45.296963,62.926037 
z"/>
<path fill="#287AAC" opacity="1.000000" stroke="none" 
	d="
M144.096069,101.306274 
	C144.496643,101.200134 145.078262,101.341431 145.832001,101.739014 
	C145.428436,101.848106 144.852768,101.700912 144.096069,101.306274 
z"/>
<path fill="#287AAC" opacity="1.000000" stroke="none" 
	d="
M168.027969,88.695435 
	C167.693359,88.533592 167.347092,88.078789 166.989807,87.321320 
	C167.324646,87.479935 167.670486,87.941208 168.027969,88.695435 
z"/>
<path fill="#287AAC" opacity="1.000000" stroke="none" 
	d="
M165.082489,83.668335 
	C164.750870,83.512405 164.388885,83.065147 164.014160,82.312332 
	C164.351654,82.463516 164.701889,82.920258 165.082489,83.668335 
z"/>
<path fill="#237CB1" opacity="1.000000" stroke="none" 
	d="
M33.349655,83.937401 
	C33.231018,83.526321 33.363094,82.934959 33.757912,82.172676 
	C33.880558,82.586876 33.740459,83.171997 33.349655,83.937401 
z"/>
<path fill="#287AAC" opacity="1.000000" stroke="none" 
	d="
M169.062729,90.676636 
	C168.728790,90.510132 168.378891,90.043243 168.026886,89.266335 
	C168.365448,89.429626 168.706100,89.902931 169.062729,90.676636 
z"/>
<path fill="#287AAC" opacity="1.000000" stroke="none" 
	d="
M170.066681,92.660187 
	C169.724762,92.491295 169.378876,92.019348 169.041595,91.234848 
	C169.387695,91.400574 169.725189,91.878845 170.066681,92.660187 
z"/>
<path fill="#237CB1" opacity="1.000000" stroke="none" 
	d="
M34.226288,81.821144 
	C34.166763,81.462944 34.321095,80.898331 34.719765,80.157928 
	C34.789452,80.526337 34.614796,81.070541 34.226288,81.821144 
z"/>
<path fill="#237CB1" opacity="1.000000" stroke="none" 
	d="
M38.221577,73.814346 
	C38.173061,73.439926 38.353657,72.878815 38.797852,72.165733 
	C38.857868,72.551727 38.654278,73.089684 38.221577,73.814346 
z"/>
<path fill="#F7BA26" opacity="1.000000" stroke="none" 
	d="
M108.248184,91.711540 
	C108.841049,91.852974 109.335060,92.113251 109.920792,92.684135 
	C110.012520,92.994751 109.907532,93.134224 109.623062,93.077705 
	C108.876450,92.703629 108.414307,92.386070 107.952164,92.068512 
	C107.952164,92.068512 108.149323,91.830376 108.248184,91.711540 
z"/>
<path fill="#287AAC" opacity="1.000000" stroke="none" 
	d="
M126.181458,92.225334 
	C126.551949,92.179810 127.113380,92.359406 127.829208,92.800720 
	C127.446541,92.858437 126.909470,92.654442 126.181458,92.225334 
z"/>
<path fill="#F7BA26" opacity="1.000000" stroke="none" 
	d="
M110.066498,92.926163 
	C110.651558,93.066360 111.182632,93.275146 111.862930,93.734909 
	C112.012138,93.985893 111.913147,94.090019 111.595184,94.064987 
	C110.820663,93.738037 110.364098,93.436127 109.907532,93.134216 
	C109.907532,93.134224 110.012520,92.994751 110.066498,92.926163 
z"/>
<path fill="#287AAC" opacity="1.000000" stroke="none" 
	d="
M128.106186,93.286987 
	C128.515274,93.224419 129.093796,93.410011 129.798584,93.886017 
	C129.375107,93.962662 128.825363,93.748909 128.106186,93.286987 
z"/>
<path fill="#257FB5" opacity="1.000000" stroke="none" 
	d="
M37.728970,60.085442 
	C37.729229,60.525784 37.465027,61.070908 36.874672,61.602402 
	C36.853848,61.122589 37.159180,60.656406 37.728970,60.085442 
z"/>
<path fill="#257FB5" opacity="1.000000" stroke="none" 
	d="
M43.390057,54.677780 
	C43.322102,55.048820 42.981049,55.504269 42.320381,55.983406 
	C42.372829,55.592129 42.744892,55.177158 43.390057,54.677780 
z"/>
<path fill="#287AAC" opacity="1.000000" stroke="none" 
	d="
M135.257065,97.163170 
	C135.596390,97.132332 136.144409,97.302048 136.854614,97.717392 
	C136.499786,97.763260 135.982773,97.563492 135.257065,97.163170 
z"/>
<path fill="#F7BA26" opacity="1.000000" stroke="none" 
	d="
M72.067993,63.931610 
	C72.406998,64.037025 72.686096,64.211662 73.058441,64.620377 
	C73.151672,64.854446 73.013145,64.980476 72.751900,64.910629 
	C72.251755,64.642990 72.052994,64.410843 71.894371,64.144325 
	C71.894371,64.144325 72.008087,64.000832 72.067993,63.931610 
z"/>
<path fill="#237CB1" opacity="1.000000" stroke="none" 
	d="
M41.453224,68.361099 
	C41.324841,68.134087 41.460011,67.744087 41.879814,67.209641 
	C42.015224,67.442833 41.866001,67.820473 41.453224,68.361099 
z"/>
<path fill="#F7BA26" opacity="1.000000" stroke="none" 
	d="
M76.927734,68.096169 
	C77.244957,68.204994 77.541023,68.348167 77.943581,68.722214 
	C78.050072,68.953094 77.940392,69.040070 77.700714,68.953018 
	C77.225105,68.675438 77.025230,68.452568 76.861404,68.197357 
	C76.861404,68.197357 76.906586,68.130516 76.927734,68.096169 
z"/>
<path fill="#257FB5" opacity="1.000000" stroke="none" 
	d="
M38.738396,59.018013 
	C38.812172,59.219646 38.634476,59.507133 38.218338,59.895805 
	C38.148903,59.699284 38.317913,59.401569 38.738396,59.018013 
z"/>
<path fill="#257FB5" opacity="1.000000" stroke="none" 
	d="
M54.601635,45.838966 
	C54.641106,46.074459 54.381367,46.409462 53.793777,46.796616 
	C53.744759,46.545334 54.023594,46.241901 54.601635,45.838966 
z"/>
<path fill="#237CB1" opacity="1.000000" stroke="none" 
	d="
M44.396873,64.105057 
	C44.287292,63.891361 44.430176,63.571892 44.817062,63.135471 
	C44.923820,63.345444 44.786583,63.672367 44.396873,64.105057 
z"/>
<path fill="#237CB1" opacity="1.000000" stroke="none" 
	d="
M48.362377,59.086189 
	C48.264919,58.864971 48.428970,58.554291 48.843979,58.140846 
	C48.937923,58.357632 48.780903,58.677181 48.362377,59.086189 
z"/>
<path fill="#257FB5" opacity="1.000000" stroke="none" 
	d="
M36.342632,61.718864 
	C36.442558,61.969418 36.280544,62.335033 35.799446,62.746834 
	C35.680473,62.473320 35.880581,62.153622 36.342632,61.718864 
z"/>
<path fill="#287AAC" opacity="1.000000" stroke="none" 
	d="
M163.978638,81.716629 
	C163.735107,81.761688 163.472794,81.527023 163.158234,81.027817 
	C163.390625,80.987816 163.675232,81.212357 163.978638,81.716629 
z"/>
<path fill="#CCF0F9" opacity="1.000000" stroke="none" 
	d="
M81.729370,38.051178 
	C81.778023,38.237949 81.566811,38.420219 81.162056,38.696842 
	C81.019814,38.478390 81.186806,38.230217 81.729370,38.051178 
z"/>
<path fill="#CCF0F9" opacity="1.000000" stroke="none" 
	d="
M88.660690,30.039913 
	C88.903481,30.327305 88.756409,30.605745 88.189301,30.832035 
	C88.010803,30.555187 88.177994,30.305546 88.660690,30.039913 
z"/>
<path fill="#2276AA" opacity="1.000000" stroke="none" 
	d="
M198.453705,171.227768 
	C198.306519,171.029587 198.399628,170.676224 198.719208,170.154037 
	C198.861786,170.347672 198.777878,170.710129 198.453705,171.227768 
z"/>
<path fill="#257BAF" opacity="1.000000" stroke="none" 
	d="
M20.012432,169.301361 
	C20.272001,169.293365 20.532597,169.598236 20.806824,170.213776 
	C20.551456,170.221039 20.282459,169.917633 20.012432,169.301361 
z"/>
<path fill="#257BAF" opacity="1.000000" stroke="none" 
	d="
M19.485781,87.616547 
	C19.654778,87.822380 19.576693,88.220177 19.256367,88.814018 
	C19.088982,88.609550 19.163839,88.209030 19.485781,87.616547 
z"/>
<path fill="#237CB1" opacity="1.000000" stroke="none" 
	d="
M49.295036,58.001202 
	C49.219296,57.796913 49.393112,57.498165 49.813911,57.100212 
	C49.888790,57.302917 49.716694,57.604828 49.295036,58.001202 
z"/>
<path fill="#257FB5" opacity="1.000000" stroke="none" 
	d="
M52.771187,47.072510 
	C52.816330,47.304001 52.591904,47.557175 52.114357,47.864288 
	C52.074703,47.643547 52.288162,47.368870 52.771187,47.072510 
z"/>
<path fill="#237CB1" opacity="1.000000" stroke="none" 
	d="
M58.900307,47.921158 
	C59.214825,47.684956 59.529343,47.448750 60.143929,47.199898 
	C60.391197,47.346409 60.338394,47.505566 59.942207,47.878536 
	C59.598824,48.092354 59.163124,48.163174 59.098358,48.101654 
	C59.033588,48.040131 58.900307,47.921154 58.900307,47.921158 
z"/>
<path fill="#257FB5" opacity="1.000000" stroke="none" 
	d="
M40.730717,57.035393 
	C40.796234,57.240238 40.608738,57.524014 40.176636,57.899269 
	C40.113922,57.698608 40.295811,57.406467 40.730717,57.035393 
z"/>
<path fill="#237CB1" opacity="1.000000" stroke="none" 
	d="
M58.321449,49.139839 
	C58.228588,48.860497 58.362251,48.550678 58.698109,48.081009 
	C58.900307,47.921154 59.033588,48.040131 59.048325,48.310867 
	C59.063057,48.581608 58.993290,49.006172 58.993290,49.006172 
	C58.993290,49.006172 58.547966,49.109367 58.321449,49.139839 
z"/>
<path fill="#CCF0F9" opacity="1.000000" stroke="none" 
	d="
M59.225254,48.932777 
	C58.993290,49.006172 59.063057,48.581608 59.113091,48.372391 
	C59.163124,48.163174 59.598824,48.092354 59.819519,48.098114 
	C59.945511,48.432590 59.751179,48.684425 59.225254,48.932777 
z"/>
<path fill="#237CB1" opacity="1.000000" stroke="none" 
	d="
M57.293762,50.052460 
	C57.228977,49.832520 57.430157,49.535458 57.898094,49.163109 
	C57.963142,49.383659 57.761436,49.679497 57.293762,50.052460 
z"/>
<path fill="#257FB5" opacity="1.000000" stroke="none" 
	d="
M48.714939,49.998306 
	C48.777283,50.230465 48.569645,50.505402 48.105122,50.846130 
	C48.047146,50.621643 48.246052,50.331364 48.714939,49.998306 
z"/>
<path fill="#257FB5" opacity="1.000000" stroke="none" 
	d="
M41.750168,56.058796 
	C41.816017,56.272182 41.624741,56.542297 41.194866,56.898071 
	C41.135189,56.694332 41.314117,56.404926 41.750168,56.058796 
z"/>
<path fill="#237CB1" opacity="1.000000" stroke="none" 
	d="
M51.228065,55.929867 
	C51.158672,55.742073 51.328632,55.462536 51.726002,55.078426 
	C51.791416,55.261944 51.629414,55.550034 51.228065,55.929867 
z"/>
<path fill="#257FB5" opacity="1.000000" stroke="none" 
	d="
M45.525986,52.790176 
	C45.608135,53.035606 45.431320,53.356285 44.964424,53.701740 
	C44.871906,53.439487 45.069466,53.152454 45.525986,52.790176 
z"/>
<path fill="#257FB5" opacity="1.000000" stroke="none" 
	d="
M44.469761,53.742752 
	C44.554962,53.996292 44.388599,54.322762 43.926250,54.646881 
	C43.826244,54.368248 44.022217,54.091965 44.469761,53.742752 
z"/>
<path fill="#F0FBFD" opacity="1.000000" stroke="none" 
	d="
M138.189087,70.573044 
	C143.801163,73.658333 145.447006,77.589371 143.304276,82.103371 
	C141.502930,85.898193 137.069214,87.830017 133.282379,86.470016 
	C128.985504,84.926834 126.505859,80.253944 128.052185,76.006523 
	C129.684616,71.522598 133.000946,69.528160 138.189087,70.573044 
z"/>
<path fill="#E6F8FD" opacity="1.000000" stroke="none" 
	d="
M131.707672,60.598202 
	C132.566437,65.092896 130.373901,67.764557 126.703011,67.698936 
	C124.552475,67.660507 121.406715,65.420776 120.655045,63.434650 
	C120.060707,61.864250 121.867111,58.353313 123.607246,57.149666 
	C127.058159,54.762661 129.771194,56.924774 131.707672,60.598202 
z"/>
<path fill="#FCB913" opacity="1.000000" stroke="none" 
	d="
M136.447174,125.957901 
	C136.041565,125.509033 136.021225,125.080574 136.035339,123.982071 
	C139.047836,119.870544 142.025864,116.429054 145.003906,112.987572 
	C147.223221,113.777641 149.442551,114.567711 151.707642,115.977875 
	C152.486450,117.674011 153.219498,118.750061 153.952530,119.826111 
	C154.970627,118.877243 155.988708,117.928383 157.006805,116.979515 
	C162.440079,117.321877 167.870544,117.856735 173.307648,117.936165 
	C176.700516,117.985741 178.352051,119.163353 177.985504,122.616745 
	C177.046600,131.462112 176.076508,140.304153 175.028717,149.980209 
	C163.502045,145.357391 153.487228,141.340897 143.462097,137.320282 
	C147.178650,130.114059 145.727737,127.668671 136.447174,125.957901 
z"/>
<path fill="#FCB913" opacity="1.000000" stroke="none" 
	d="
M144.766968,112.718628 
	C142.025864,116.429054 139.047836,119.870544 136.033234,123.659760 
	C131.662720,122.335846 127.333130,120.652740 122.991631,119.000961 
	C121.957039,118.607338 120.882622,118.318398 119.442947,117.958588 
	C115.363739,115.674904 111.668106,113.413940 107.697807,110.984955 
	C108.322990,109.806007 109.137146,108.270691 110.013657,106.396667 
	C111.161652,104.540344 112.247307,103.022728 113.486359,101.290665 
	C110.346733,99.495201 107.836472,98.059654 105.303650,96.019646 
	C105.853615,94.285744 106.426132,93.156296 106.998650,92.026855 
	C106.998650,92.026855 107.476311,92.033882 107.714233,92.051193 
	C108.414307,92.386070 108.876450,92.703629 109.623062,93.077698 
	C110.364098,93.436127 110.820663,93.738037 111.545540,94.116905 
	C112.602959,94.814842 113.392067,95.435814 114.507576,96.115219 
	C115.143341,96.923096 115.452705,97.672546 115.882080,99.098145 
	C116.152130,101.020752 116.302155,102.267204 116.452187,103.513649 
	C116.822792,103.498970 117.193390,103.484291 117.563995,103.469612 
	C117.709335,102.313683 117.854668,101.157753 118.000000,100.001823 
	C121.363892,101.357353 124.727783,102.712883 128.464249,104.123474 
	C134.067902,106.935593 139.298965,109.692635 144.766968,112.718628 
z"/>
<path fill="#FCB913" opacity="1.000000" stroke="none" 
	d="
M156.753937,116.705139 
	C155.988708,117.928383 154.970627,118.877243 153.952530,119.826111 
	C153.219498,118.750061 152.486450,117.674011 151.879639,116.294197 
	C153.504272,116.137215 155.002670,116.283989 156.753937,116.705139 
z"/>
<path fill="#057DC1" opacity="1.000000" stroke="none" 
	d="
M201.998535,156.998169 
	C202.093063,156.963425 202.189041,156.930527 202.144348,156.950287 
	C202.003662,157.002960 202.000000,157.000000 201.998535,156.998169 
z"/>
<path fill="#FCB912" opacity="1.000000" stroke="none" 
	d="
M106.649796,91.981270 
	C106.426132,93.156296 105.853615,94.285744 105.139816,95.708870 
	C103.256371,95.331635 101.514198,94.660713 99.413834,93.965149 
	C96.676338,92.601700 94.297035,91.262909 91.548424,89.863869 
	C88.092880,87.844757 85.006653,85.885895 81.556747,83.866623 
	C81.126625,82.476997 81.060196,81.147797 80.992020,79.049057 
	C80.326813,76.518669 79.663338,74.757805 78.999870,72.996948 
	C80.379890,73.348579 81.759911,73.700211 83.490311,74.109894 
	C85.281242,75.460716 86.721786,76.753494 88.508209,78.099838 
	C90.408081,81.170479 91.795631,84.391335 96.463646,84.113548 
	C99.995193,86.756950 103.148064,89.346313 106.649796,91.981270 
z"/>
<path fill="#FCB913" opacity="1.000000" stroke="none" 
	d="
M76.514114,68.137657 
	C77.025230,68.452568 77.225105,68.675438 77.644875,68.995209 
	C77.888374,70.154633 77.948021,71.184822 77.743279,72.791458 
	C76.649879,74.916054 75.820877,76.464203 74.991875,78.012360 
	C73.965561,77.986694 72.939240,77.961037 71.534561,77.882553 
	C69.072777,76.530556 66.989357,75.231384 64.543510,73.875381 
	C64.979012,69.474472 65.676132,65.058365 71.524185,64.100876 
	C72.052994,64.410843 72.251755,64.642990 72.680183,64.970840 
	C73.968750,66.093254 75.067787,67.085609 76.514114,68.137657 
z"/>
<path fill="#FCB912" opacity="1.000000" stroke="none" 
	d="
M117.741821,99.892700 
	C117.854668,101.157753 117.709335,102.313683 117.563995,103.469612 
	C117.193390,103.484291 116.822792,103.498970 116.452187,103.513649 
	C116.302155,102.267204 116.152130,101.020752 116.004395,99.380402 
	C116.499001,99.252205 116.991310,99.517891 117.741821,99.892700 
z"/>
<path fill="#FBB912" opacity="1.000000" stroke="none" 
	d="
M74.996643,78.331337 
	C75.820877,76.464203 76.649879,74.916054 77.744751,73.179993 
	C78.010620,72.992081 78.505249,72.994034 78.752563,72.995491 
	C79.663338,74.757805 80.326813,76.518669 80.992844,78.645752 
	C79.275009,79.332924 77.554611,79.653877 75.456009,79.948181 
	C75.052345,79.497795 75.026878,79.074059 74.996643,78.331337 
z"/>
</svg>